<?xml version="1.0" encoding="UTF-8"?>
<svg id="Camada_1" data-name="Camada 1" xmlns="http://www.w3.org/2000/svg" viewBox="0 0 250 250">
  <path d="M101.62,49.07v35.56c0,6.04-1.64,10.66-4.91,13.86-3.27,3.2-7.78,4.8-13.52,4.8-6.09,0-10.95-1.7-14.58-5.1-3.63-3.4-5.44-8.3-5.44-14.69h14.77c.05,4.21,1.6,6.32,4.64,6.32,2.74,0,4.11-1.73,4.11-5.18v-35.56h14.92Z"/>
  <path d="M186.14,49.07l-13.17,53.68h-18.35l-7.39-32.89-7.54,32.89h-18.35l-13.02-53.68h16.14l6.24,36.7,8.45-36.7h16.37l8.22,36.39,6.24-36.39h16.14Z"/>
  <path d="M78.9,203.1l-5.94-8.91c-1.67.3-3.38.46-5.1.46-5.03,0-9.65-1.18-13.86-3.54-4.21-2.36-7.55-5.63-10.01-9.82-2.46-4.19-3.69-8.92-3.69-14.2s1.23-10.01,3.69-14.2c2.46-4.19,5.8-7.45,10.01-9.78,4.21-2.33,8.83-3.5,13.86-3.5s9.71,1.17,13.9,3.5c4.19,2.34,7.5,5.6,9.94,9.78s3.65,8.92,3.65,14.2c0,4.42-.89,8.49-2.67,12.22-1.78,3.73-4.21,6.84-7.31,9.33l11.34,14.47h-17.82ZM58.8,177.1c2.18,2.46,5.2,3.69,9.06,3.69s6.81-1.24,9.02-3.73c2.21-2.49,3.31-5.81,3.31-9.97s-1.1-7.63-3.31-10.09c-2.21-2.46-5.22-3.69-9.02-3.69s-6.88,1.23-9.06,3.69c-2.18,2.46-3.27,5.83-3.27,10.09s1.09,7.55,3.27,10.01Z"/>
  <path d="M145.82,151.4v42.71h-15v-6.09c-1.27,1.93-3.02,3.49-5.25,4.68-2.23,1.19-4.8,1.79-7.69,1.79-4.98,0-8.9-1.64-11.76-4.91-2.87-3.27-4.3-7.73-4.3-13.36v-24.82h14.85v22.92c0,2.44.65,4.35,1.94,5.75,1.29,1.4,3.01,2.09,5.14,2.09s3.91-.7,5.18-2.09c1.27-1.4,1.9-3.31,1.9-5.75v-22.92h15Z"/>
  <path d="M155.53,145.27c-1.6-1.45-2.4-3.26-2.4-5.44s.8-4.09,2.4-5.56c1.6-1.47,3.72-2.21,6.36-2.21s4.68.74,6.28,2.21c1.6,1.47,2.4,3.33,2.4,5.56s-.8,4-2.4,5.44c-1.6,1.45-3.69,2.17-6.28,2.17s-4.76-.72-6.36-2.17ZM169.27,151.4v42.71h-14.92v-42.71h14.92Z"/>
  <path d="M191.96,181.7h18.2v12.41h-34.64v-11.8l16.98-18.5h-16.83v-12.41h33.88v11.8l-17.59,18.5Z"/>
</svg>